<?xml version="1.0" standalone="no"?>
<!DOCTYPE svg PUBLIC "-//W3C//DTD SVG 20010904//EN"
 "http://www.w3.org/TR/2001/REC-SVG-20010904/DTD/svg10.dtd">
<svg version="1.0" xmlns="http://www.w3.org/2000/svg"
 width="260.000000pt" height="260.000000pt" viewBox="0 0 260.000000 260.000000"
 preserveAspectRatio="xMidYMid meet">
<metadata>
Created by potrace 1.14, written by Peter Selinger 2001-2017
</metadata>
<g transform="translate(0.000000,260.000000) scale(0.100000,-0.100000)"
fill="#000000" stroke="none">
<path d="M2242 2218 c-7 -7 -12 -21 -12 -32 0 -12 -4 -16 -8 -11 -10 14 -32
17 -32 4 0 -8 -5 -8 -15 1 -8 7 -15 11 -16 9 0 -2 -3 -13 -5 -24 -3 -11 -6
-25 -6 -32 -1 -7 -5 -10 -10 -7 -5 3 -6 11 -2 17 3 7 -2 3 -10 -7 -9 -12 -15
-33 -13 -51 2 -17 -2 -36 -10 -43 -8 -8 -13 -9 -13 -2 0 5 -5 10 -11 10 -5 0
-7 -6 -3 -12 5 -9 2 -9 -9 1 -12 9 -17 10 -17 2 0 -7 -5 -9 -12 -5 -6 4 -8 3
-5 -3 4 -6 0 -16 -8 -23 -8 -7 -15 -9 -15 -5 0 4 -7 2 -15 -5 -8 -7 -12 -17
-8 -23 11 -18 11 -47 0 -47 -5 0 -3 -8 4 -17 9 -11 10 -14 2 -9 -7 4 -22 2
-34 -5 -15 -8 -19 -8 -15 0 8 12 -3 14 -20 3 -6 -4 -10 -15 -8 -25 1 -9 -1
-15 -6 -12 -12 8 -41 -6 -34 -16 3 -5 1 -9 -5 -9 -6 0 -8 -7 -5 -15 4 -11 0
-15 -16 -15 -16 0 -20 -4 -16 -16 3 -8 2 -12 -4 -9 -6 3 -10 -4 -10 -17 0 -13
-3 -18 -8 -12 -5 9 -11 8 -20 -2 -10 -11 -10 -14 0 -14 8 0 9 -3 3 -8 -13 -8
-13 -22 -1 -41 6 -9 5 -12 -2 -7 -6 3 -14 1 -19 -6 -4 -7 -16 -14 -25 -14 -10
-1 -15 2 -12 7 3 5 0 9 -5 9 -6 0 -11 -5 -11 -11 0 -5 -4 -7 -10 -4 -5 3 -10
1 -10 -4 0 -6 6 -11 13 -11 7 0 8 -3 2 -8 -5 -4 -10 -20 -10 -37 0 -20 -5 -30
-15 -30 -8 0 -14 -7 -14 -16 1 -16 -9 -20 -59 -21 -20 -1 -25 -3 -15 -9 10 -7
9 -9 -4 -9 -9 0 -20 -5 -24 -12 -5 -8 -2 -9 10 -5 13 5 15 3 8 -11 -5 -9 -8
-25 -7 -34 2 -10 0 -17 -3 -16 -21 4 -39 -15 -35 -35 4 -18 3 -19 -6 -7 -8 12
-11 12 -11 1 0 -10 -9 -12 -32 -7 -24 4 -29 3 -18 -4 13 -9 13 -10 0 -11 -8
-1 -17 -1 -20 -1 -3 0 -5 -10 -5 -23 0 -13 3 -21 8 -18 11 7 8 -20 -4 -37 -9
-13 -10 -12 -5 2 4 15 2 16 -13 6 -10 -6 -18 -18 -17 -27 0 -9 -5 -15 -11 -14
-7 2 -12 -3 -10 -10 1 -6 -3 -11 -10 -10 -6 1 -14 -4 -17 -13 -4 -10 -1 -13 7
-9 6 4 3 -1 -7 -9 -11 -9 -24 -16 -29 -16 -4 0 -5 -5 -2 -11 4 -6 -2 -13 -14
-16 -18 -5 -38 -37 -33 -55 1 -4 -6 -4 -15 -1 -12 5 -14 3 -8 -7 6 -10 4 -10
-10 -3 -13 8 -23 6 -36 -5 -10 -9 -16 -19 -14 -23 3 -4 -2 -9 -10 -13 -17 -6
-29 9 -19 26 4 7 3 8 -4 4 -7 -4 -12 -1 -12 9 0 12 -4 14 -16 7 -22 -12 -57
-3 -51 13 3 6 -8 23 -24 36 -16 13 -29 30 -29 37 0 9 -6 12 -16 8 -8 -3 -12
-2 -9 4 3 6 1 10 -4 10 -6 0 -10 4 -8 9 1 5 -9 18 -22 30 -15 13 -21 26 -17
37 5 14 4 15 -9 4 -14 -11 -19 -7 -16 13 0 4 -4 7 -10 7 -6 0 -9 6 -6 14 4 9
-2 12 -18 10 -17 -1 -22 2 -18 12 3 9 -15 34 -46 63 -28 27 -51 54 -51 61 0 7
-7 10 -16 6 -15 -6 -15 -4 -3 11 9 11 10 14 2 9 -12 -6 -17 4 -15 25 1 4 -6 6
-16 5 -11 -1 -18 8 -20 22 -2 15 -9 22 -20 20 -10 -2 -17 4 -17 12 0 20 -17
39 -30 34 -6 -3 -11 5 -12 17 -1 12 -7 27 -14 33 -9 8 -10 8 -5 -1 5 -9 2 -11
-8 -7 -9 3 -16 14 -16 23 0 9 -10 22 -22 27 -13 6 -17 9 -11 7 10 -2 10 2 1
17 -7 10 -14 17 -16 15 -8 -7 -32 24 -30 37 2 7 -7 14 -20 16 -13 2 -22 10
-22 21 0 9 -10 22 -23 27 -12 6 -16 9 -9 7 7 -1 10 2 7 7 -3 6 -14 10 -23 10
-15 0 -15 2 -2 10 13 9 13 10 0 11 -40 5 -56 3 -63 -6 -5 -6 -7 -3 -3 7 3 10
1 20 -5 23 -5 4 -7 10 -4 15 6 9 -20 21 -29 13 -3 -4 -6 -14 -6 -24 0 -10 -5
-21 -12 -25 -7 -4 -8 -3 -4 4 5 8 1 10 -9 6 -9 -4 -14 -13 -11 -20 3 -8 1 -14
-4 -14 -5 0 -6 -7 -3 -17 4 -10 2 -14 -4 -10 -7 4 -10 0 -8 -10 2 -10 4 -22 4
-26 1 -5 5 -5 11 -2 6 3 7 -1 4 -9 -3 -9 -10 -13 -15 -10 -5 3 -6 -2 -3 -10 3
-9 11 -13 17 -9 6 4 7 1 1 -8 -4 -8 -7 -25 -5 -38 2 -14 -1 -21 -8 -17 -7 4
-8 1 -5 -8 3 -9 11 -13 17 -9 6 4 7 1 1 -8 -4 -8 -7 -26 -5 -41 1 -14 -2 -29
-8 -33 -6 -3 -11 -12 -11 -18 0 -7 4 -6 10 3 7 11 9 8 8 -15 -1 -16 -7 -33
-13 -37 -6 -5 -6 -8 3 -8 14 0 16 -36 2 -45 -6 -4 -7 -12 -3 -18 12 -20 14
-49 2 -42 -6 4 -5 -2 3 -14 10 -17 10 -25 0 -41 -14 -23 -16 -42 -2 -20 7 11
9 8 8 -15 -1 -16 -7 -33 -13 -37 -6 -5 -6 -8 3 -8 14 0 16 -36 2 -45 -6 -4 -7
-12 -3 -18 12 -20 14 -49 2 -42 -6 4 -5 -2 3 -14 10 -17 10 -25 0 -41 -14 -23
-16 -42 -2 -20 7 11 9 8 8 -15 -1 -16 -7 -33 -13 -37 -6 -5 -6 -8 3 -8 15 0
16 -32 2 -46 -13 -13 -2 -46 13 -37 6 4 7 1 1 -8 -4 -8 -7 -25 -5 -38 2 -14
-1 -21 -8 -17 -7 4 -8 1 -5 -8 3 -9 11 -13 17 -9 6 4 7 1 1 -8 -4 -8 -7 -25
-5 -38 2 -14 -1 -21 -8 -17 -7 4 -8 1 -5 -8 3 -9 11 -13 17 -9 6 4 7 1 1 -8
-4 -8 -7 -25 -5 -38 2 -14 -1 -21 -8 -17 -7 4 -8 1 -5 -8 3 -9 11 -13 17 -9 6
4 7 1 1 -8 -4 -8 -7 -26 -5 -41 1 -14 -2 -29 -8 -33 -6 -3 -11 -12 -11 -18 0
-7 4 -6 10 3 7 11 9 8 8 -15 -1 -16 -7 -33 -13 -37 -6 -5 -6 -8 3 -8 14 0 16
-36 2 -45 -6 -4 -7 -12 -3 -18 12 -20 14 -49 2 -42 -6 4 -5 -2 3 -14 10 -17
10 -25 0 -41 -14 -23 -16 -42 -2 -20 7 11 9 8 8 -15 -1 -16 -7 -33 -13 -37 -6
-5 -6 -8 3 -8 14 0 16 -36 2 -45 -6 -4 -7 -12 -3 -18 12 -20 14 -49 2 -42 -6
4 -5 -2 3 -14 10 -17 10 -25 0 -41 -6 -11 -12 -23 -12 -27 0 -5 4 -2 9 6 6 10
9 2 9 -22 0 -25 -4 -35 -12 -30 -8 5 -8 3 0 -8 6 -8 10 -22 9 -31 -2 -11 2
-15 13 -11 10 4 13 2 8 -5 -5 -8 2 -10 24 -6 27 6 30 4 28 -17 l-3 -24 293 -3
c189 -1 291 1 287 7 -6 11 15 51 28 51 4 0 6 -4 3 -9 -3 -5 1 -12 10 -15 10
-4 13 -2 8 6 -5 8 -2 9 9 5 10 -3 17 -2 17 3 0 6 5 10 10 10 6 0 9 -3 9 -7 -3
-20 2 -27 11 -13 7 11 12 12 21 3 9 -9 18 -9 32 -1 15 7 22 7 28 -3 7 -11 9
-10 9 4 0 9 5 17 11 17 5 0 7 -5 3 -11 -4 -8 1 -9 16 -4 17 5 21 4 16 -6 -4
-8 -1 -6 7 4 15 17 33 24 23 8 -3 -5 1 -12 10 -15 10 -4 13 -2 8 6 -5 8 -2 9
9 5 10 -3 17 -2 17 3 0 6 5 10 10 10 6 0 9 -3 9 -7 -3 -20 2 -27 11 -13 7 11
12 12 21 3 9 -9 18 -9 32 -1 15 7 22 7 28 -3 7 -11 9 -10 9 4 0 9 5 17 11 17
5 0 7 -5 3 -11 -4 -8 1 -9 16 -4 17 5 21 4 16 -6 -4 -8 -1 -6 7 3 15 18 33 25
23 9 -3 -5 1 -12 10 -15 10 -4 13 -2 8 6 -5 8 -2 9 9 5 10 -3 17 -2 17 3 0 6
5 10 10 10 6 0 9 -3 9 -7 -3 -20 2 -27 11 -13 7 11 12 12 21 3 9 -9 18 -9 32
-1 15 7 22 7 28 -3 7 -11 9 -10 9 4 0 9 5 17 11 17 5 0 7 -5 3 -11 -4 -8 1 -9
16 -4 17 5 21 4 16 -6 -4 -8 -1 -6 7 4 15 17 33 24 23 8 -3 -5 1 -12 10 -15
10 -4 13 -2 8 6 -5 8 -2 9 9 5 10 -3 17 -2 17 3 0 6 5 10 10 10 6 0 9 -3 9 -8
-3 -19 2 -26 11 -12 7 11 12 12 21 3 9 -9 18 -9 32 -1 15 7 22 7 28 -3 7 -11
9 -10 9 4 0 9 5 17 11 17 5 0 7 -5 3 -11 -4 -8 1 -9 16 -4 17 5 21 4 16 -6 -4
-8 -1 -6 7 4 15 17 33 24 23 8 -3 -5 1 -12 10 -15 10 -4 13 -2 8 6 -5 8 -2 9
9 5 10 -3 17 -2 17 3 0 6 5 10 10 10 6 0 9 -3 9 -7 -3 -20 2 -27 11 -13 7 11
12 12 21 3 9 -9 18 -9 32 -1 15 7 22 7 28 -3 7 -11 9 -10 9 4 0 9 5 17 11 17
5 0 7 -5 3 -11 -4 -8 1 -9 16 -4 17 5 21 4 16 -6 -4 -8 -1 -6 7 3 15 18 33 25
23 9 -3 -5 1 -12 10 -15 8 -3 12 -2 9 3 -3 6 8 9 23 9 16 -1 34 2 40 6 6 3 15
-2 21 -11 7 -12 10 -13 11 -4 0 8 6 11 16 7 8 -3 12 -2 9 4 -3 6 -1 10 5 10 6
0 9 4 6 9 -4 5 0 12 6 14 9 4 9 6 1 6 -7 1 -9 13 -6 32 3 24 1 29 -9 24 -7 -3
-4 1 6 9 11 9 15 16 9 16 -6 0 -9 10 -9 22 1 13 -2 32 -8 43 -9 18 -8 19 9 5
13 -11 16 -11 11 -2 -14 24 -17 84 -3 75 9 -5 9 -3 0 8 -10 12 -10 18 0 29 7
8 7 10 1 7 -7 -4 -11 3 -11 18 0 16 4 22 11 18 6 -4 5 0 -2 9 -8 10 -9 19 -3
22 13 8 1 47 -13 40 -6 -3 -2 2 8 10 11 9 15 16 9 16 -6 0 -9 10 -9 23 1 12
-2 31 -8 42 -9 18 -8 19 9 5 13 -11 16 -11 11 -2 -14 24 -17 84 -3 75 9 -5 9
-3 0 8 -10 12 -10 18 0 29 7 8 7 10 1 7 -7 -4 -12 3 -11 18 0 16 4 22 11 18 6
-4 5 0 -2 9 -8 10 -9 19 -3 22 13 8 1 47 -13 40 -6 -3 -2 2 8 10 11 9 15 16 9
16 -6 0 -9 10 -9 23 1 12 -2 31 -8 42 -9 18 -8 19 9 5 13 -11 16 -11 11 -2
-14 24 -17 84 -3 75 9 -5 9 -3 0 8 -10 12 -10 18 0 29 7 8 7 10 1 7 -7 -4 -11
3 -11 18 0 16 4 22 11 18 6 -4 5 0 -2 9 -8 10 -9 19 -3 22 13 8 1 47 -13 40
-6 -3 -2 2 8 10 11 9 15 16 9 16 -6 0 -9 10 -9 23 1 12 -2 31 -8 42 -9 18 -8
19 9 5 13 -11 16 -11 11 -2 -14 24 -17 84 -3 75 9 -5 9 -3 0 8 -10 12 -10 18
0 29 7 8 7 10 1 7 -7 -4 -11 3 -11 18 0 16 4 22 11 18 6 -4 5 0 -2 9 -8 10 -9
19 -3 22 13 8 1 47 -13 40 -6 -3 -2 2 8 10 11 9 15 16 9 16 -6 0 -9 10 -9 23
1 12 -2 31 -8 42 -9 18 -8 19 9 5 13 -11 16 -11 11 -2 -14 24 -17 84 -3 75 9
-5 9 -3 0 8 -10 12 -10 18 0 29 7 8 7 10 1 7 -7 -4 -11 3 -11 18 0 16 4 22 11
18 6 -4 5 0 -2 9 -8 10 -9 19 -3 22 13 8 1 47 -13 40 -6 -3 -2 2 8 10 11 9 15
16 9 16 -6 0 -9 10 -9 23 1 12 -2 31 -8 42 -9 18 -8 19 9 5 13 -11 16 -11 11
-2 -14 24 -17 84 -3 75 9 -5 9 -3 0 8 -10 12 -10 18 0 29 7 8 7 10 1 7 -7 -4
-11 3 -11 18 0 16 4 22 11 18 6 -4 5 0 -2 9 -8 10 -9 19 -3 22 13 8 1 47 -13
40 -6 -3 -2 2 8 10 11 9 15 16 10 16 -5 0 -10 9 -11 20 -1 11 4 20 10 20 8 0
7 4 -2 9 -12 8 -12 12 -2 25 12 15 8 20 -12 17 -5 -1 -5 4 -1 11 5 7 9 18 10
24 2 15 -59 17 -74 2z m-228 -226 c3 -5 -1 -9 -9 -9 -8 0 -12 4 -9 9 3 4 7 8
9 8 2 0 6 -4 9 -8z m-924 -1936 c0 -3 -4 -8 -10 -11 -5 -3 -10 -1 -10 4 0 6 5
11 10 11 6 0 10 -2 10 -4z m240 0 c0 -3 -4 -8 -10 -11 -5 -3 -10 -1 -10 4 0 6
5 11 10 11 6 0 10 -2 10 -4z m240 0 c0 -3 -4 -8 -10 -11 -5 -3 -10 -1 -10 4 0
6 5 11 10 11 6 0 10 -2 10 -4z m240 0 c0 -3 -4 -8 -10 -11 -5 -3 -10 -1 -10 4
0 6 5 11 10 11 6 0 10 -2 10 -4z m240 0 c0 -3 -4 -8 -10 -11 -5 -3 -10 -1 -10
4 0 6 5 11 10 11 6 0 10 -2 10 -4z m-1675 -36 c3 -5 1 -10 -4 -10 -6 0 -11 5
-11 10 0 6 2 10 4 10 3 0 8 -4 11 -10z"/>
</g>
</svg>
